<?xml version="1.0" standalone="no"?>
<!DOCTYPE svg PUBLIC "-//W3C//DTD SVG 20010904//EN"
 "http://www.w3.org/TR/2001/REC-SVG-20010904/DTD/svg10.dtd">
<svg version="1.0" xmlns="http://www.w3.org/2000/svg"
 width="4096.000000pt" height="4096.000000pt" viewBox="0 0 4096.000000 4096.000000"
 preserveAspectRatio="xMidYMid meet">

<g transform="translate(0.000000,4096.000000) scale(0.100000,-0.100000)"
fill="#000000" stroke="none">
<path d="M6893 26473 l-1003 -3 0 -4648 c0 -3104 4 -4695 11 -4792 14 -200 36
-304 119 -556 129 -391 186 -521 317 -719 312 -471 752 -832 1288 -1054 229
-96 533 -175 767 -200 123 -14 5149 -15 5354 -1 257 16 432 57 704 165 318
125 564 263 795 445 177 139 406 386 563 607 l73 102 48 -57 c26 -31 82 -104
126 -162 136 -182 204 -258 323 -362 404 -352 786 -558 1257 -677 163 -40 276
-59 425 -69 69 -4 1201 -5 2515 -2 2173 6 2400 8 2505 24 342 50 610 141 908
307 558 311 931 687 1186 1196 155 311 246 618 287 978 7 65 13 439 16 1073
l5 973 -2333 2337 c-1283 1285 -2385 2390 -2448 2454 l-116 117 -80 -71 c-44
-39 -178 -163 -299 -276 l-218 -205 2335 -2336 2335 -2336 12 -590 c17 -820 1
-1138 -66 -1373 -165 -577 -539 -1020 -1094 -1296 -149 -74 -252 -112 -400
-149 l-85 -21 -2460 -3 c-2705 -4 -2527 -8 -2772 57 -369 97 -660 265 -919
531 -345 357 -527 776 -579 1337 l-7 72 -403 0 -403 0 -7 -72 c-34 -378 -45
-443 -110 -608 -105 -266 -257 -513 -428 -697 -270 -290 -671 -515 -1052 -592
-206 -42 -266 -42 -2940 -33 l-2560 8 -144 38 c-464 121 -824 345 -1094 681
-203 252 -356 557 -424 845 -17 71 -18 303 -20 4448 l-3 4372 1995 0 1995 0 0
-2187 c0 -1204 3 -3092 6 -4198 l6 -2010 392 0 391 0 3 4198 2 4197 1995 0
1995 0 0 23 c0 12 1 191 2 397 l1 375 -3794 0 c-2087 0 -4245 -1 -4796 -2z"/>
<path d="M17750 26459 c-165 -13 -441 -58 -608 -100 -249 -62 -468 -160 -740
-330 -715 -446 -1170 -1145 -1281 -1969 -21 -155 -34 -903 -26 -1543 l7 -627
2440 -2433 c1342 -1337 2446 -2433 2453 -2435 23 -6 187 141 370 332 99 103
182 192 183 197 2 5 -853 870 -1899 1922 -1047 1051 -2096 2106 -2331 2342
l-428 430 0 630 c-1 947 20 1204 116 1463 285 763 946 1263 1759 1332 92 8
864 10 2620 7 2216 -3 2499 -5 2570 -19 518 -102 937 -337 1234 -693 206 -248
355 -548 420 -845 26 -122 51 -313 51 -391 l0 -59 405 0 405 0 4 23 c3 12 10
83 16 157 39 482 219 870 568 1223 320 325 675 505 1147 583 104 17 247 18
2565 22 2545 3 2666 2 2860 -38 234 -48 626 -219 819 -357 113 -81 288 -246
373 -352 262 -324 405 -715 437 -1191 6 -83 13 -1070 17 -2302 l7 -2158 -2007
0 -2006 0 0 2195 0 2195 -400 2 -400 3 0 -45 c0 -25 0 -1905 0 -4178 l0 -4133
-24 -24 -25 -25 -1974 0 -1975 0 0 -395 0 -395 2385 2 c2347 3 2385 3 2399 22
12 17 14 305 14 1998 l0 1978 2400 0 2400 0 0 2573 c0 1464 -5 2648 -10 2748
-14 258 -43 426 -116 673 -189 632 -581 1158 -1142 1533 -401 268 -826 412
-1336 453 -168 13 -4772 13 -5013 0 -730 -40 -1214 -208 -1693 -587 -146 -115
-403 -382 -545 -565 -71 -93 -132 -168 -135 -168 -3 0 -35 39 -70 87 -483 654
-1090 1052 -1812 1189 -266 50 -115 48 -2823 50 -1386 1 -2567 -2 -2625 -7z"/>
</g>
</svg>
